<svg width="200" height="170" viewBox="0 0 200 170" fill="none" xmlns="http://www.w3.org/2000/svg">
<path d="M169.615 4.97836C163.875 4.97605 158.252 6.60057 153.397 9.66359C148.543 12.7266 144.656 17.1027 142.188 22.2846C139.719 27.4664 138.769 33.2419 139.449 38.9414C140.129 44.6409 142.41 50.031 146.028 54.487L146.747 55.3447C146.747 55.3447 167.899 82.5359 169.615 82.5822C171.33 82.6286 192.535 55.2693 192.535 55.2693L193.282 54.3711C196.877 49.9084 199.135 44.5198 199.797 38.8278C200.458 33.1359 199.496 27.3729 197.021 22.2048C194.545 17.0367 190.658 12.6745 185.809 9.62206C180.959 6.56966 175.345 4.95172 169.615 4.95518V4.97836ZM170.113 21.912C172.478 21.912 174.789 22.6132 176.755 23.9269C178.721 25.2406 180.254 27.1078 181.159 29.2924C182.063 31.477 182.3 33.8808 181.839 36.2C181.378 38.5191 180.239 40.6494 178.567 42.3214C176.895 43.9934 174.765 45.1321 172.445 45.5934C170.126 46.0547 167.722 45.8179 165.538 44.913C163.353 44.0082 161.486 42.4758 160.172 40.5097C158.859 38.5436 158.157 36.2321 158.157 33.8676C158.157 32.2973 158.465 30.7423 159.066 29.2915C159.667 27.8406 160.547 26.5223 161.658 25.412C162.768 24.3017 164.086 23.4211 165.537 22.8205C166.988 22.22 168.543 21.9112 170.113 21.912Z" fill="white"/>
<path d="M167.592 94.2016C165.442 94.1089 138.917 60.0098 138.917 60.0098L138.007 58.9377C133.175 52.9837 130.253 45.7094 129.623 38.0669C128.993 30.4244 130.685 22.7699 134.478 16.1052C134.71 15.702 134.779 15.2256 134.671 14.7733C134.563 14.321 134.287 13.9268 133.899 13.6712C119.778 4.7041 103.389 -0.0392579 86.6618 0.000244735C38.799 0.000244735 0 37.9126 0 84.6685C0 131.424 38.799 169.337 86.6618 169.337C131.285 169.337 168.015 136.391 172.79 94.0452C172.833 93.6641 172.756 93.2793 172.569 92.9443C172.382 92.6093 172.096 92.3408 171.75 92.1763C171.403 92.0117 171.014 91.9593 170.637 92.0263C170.259 92.0933 169.912 92.2763 169.644 92.55C168.606 93.6047 167.876 94.2132 167.592 94.2016ZM132.977 105.589V126.69C132.977 127.176 132.784 127.642 132.441 127.987C132.098 128.331 131.632 128.525 131.146 128.527H125.849C125.362 128.527 124.895 128.333 124.55 127.989C124.206 127.644 124.012 127.177 124.012 126.69V105.699C124.014 105.456 123.967 105.214 123.874 104.989C123.781 104.763 123.645 104.559 123.472 104.387C123.299 104.215 123.094 104.079 122.869 103.987C122.643 103.895 122.401 103.848 122.158 103.851L110.167 103.984L107.432 104.013C107.188 104.015 106.946 103.968 106.72 103.876C106.494 103.783 106.289 103.647 106.116 103.474L95.43 92.7876C95.2598 92.6166 95.0575 92.4809 94.8347 92.3883C94.612 92.2957 94.3731 92.248 94.1318 92.248C93.8906 92.248 93.6517 92.2957 93.4289 92.3883C93.2062 92.4809 93.0039 92.6166 92.8337 92.7876L51.2819 134.339C51.1118 134.51 50.9095 134.646 50.6867 134.739C50.4639 134.831 50.2251 134.879 49.9838 134.879C49.7426 134.879 49.5037 134.831 49.2809 134.739C49.0581 134.646 48.8558 134.51 48.6857 134.339L44.9478 130.601C44.7767 130.431 44.641 130.229 44.5484 130.006C44.4558 129.783 44.4082 129.545 44.4082 129.303C44.4082 129.062 44.4558 128.823 44.5484 128.6C44.641 128.378 44.7767 128.175 44.9478 128.005L86.4995 86.4534C86.8421 86.1082 87.0343 85.6416 87.0343 85.1553C87.0343 84.669 86.8421 84.2024 86.4995 83.8572L69.0327 66.3904C68.8625 66.2193 68.6603 66.0836 68.4375 65.991C68.2147 65.8984 67.9758 65.8508 67.7346 65.8508C67.4933 65.8508 67.2544 65.8984 67.0317 65.991C66.8089 66.0836 66.6066 66.2193 66.4364 66.3904L32.3315 100.484C32.1614 100.655 31.9591 100.79 31.7363 100.883C31.5135 100.976 31.2747 101.023 31.0334 101.023C30.7922 101.023 30.5533 100.976 30.3305 100.883C30.1077 100.79 29.9055 100.655 29.7353 100.484L25.9974 96.7457C25.8264 96.5756 25.6906 96.3733 25.598 96.1505C25.5054 95.9277 25.4578 95.6889 25.4578 95.4476C25.4578 95.2064 25.5054 94.9675 25.598 94.7447C25.6906 94.5219 25.8264 94.3196 25.9974 94.1495L60.0791 60.0678C60.2501 59.8976 60.3858 59.6953 60.4784 59.4725C60.571 59.2498 60.6187 59.0109 60.6187 58.7696C60.6187 58.5284 60.571 58.2895 60.4784 58.0667C60.3858 57.8439 60.2501 57.6417 60.0791 57.4715L43.951 41.3202C43.7799 41.15 43.6443 40.9478 43.5517 40.725C43.4591 40.5022 43.4114 40.2633 43.4114 40.0221C43.4114 39.7808 43.4591 39.5419 43.5517 39.3192C43.6443 39.0964 43.7799 38.8941 43.951 38.7239L47.6889 34.986C47.8591 34.815 48.0613 34.6793 48.2841 34.5867C48.5069 34.4941 48.7458 34.4464 48.987 34.4464C49.2283 34.4464 49.4671 34.4941 49.6899 34.5867C49.9127 34.6793 50.115 34.815 50.2851 34.986L79.3888 64.0839C79.5585 64.2547 79.7602 64.3903 79.9825 64.4828C80.2048 64.5753 80.4432 64.623 80.684 64.623C80.9248 64.623 81.1632 64.5753 81.3855 64.4828C81.6078 64.3903 81.8096 64.2547 81.9792 64.0839L109.686 36.3827C109.856 36.2117 110.059 36.076 110.281 35.9833C110.504 35.8907 110.743 35.8431 110.984 35.8431C111.226 35.8431 111.464 35.8907 111.687 35.9833C111.91 36.076 112.112 36.2117 112.282 36.3827L116.02 40.1032C116.191 40.2734 116.327 40.4757 116.42 40.6984C116.512 40.9212 116.56 41.1601 116.56 41.4013C116.56 41.6426 116.512 41.8815 116.42 42.1042C116.327 42.327 116.191 42.5293 116.02 42.6995L88.3192 70.4064C88.1484 70.5761 88.0128 70.7779 87.9203 71.0002C87.8277 71.2225 87.7801 71.4609 87.7801 71.7017C87.7801 71.9425 87.8277 72.1808 87.9203 72.4031C88.0128 72.6254 88.1484 72.8272 88.3192 72.9969L109.762 94.4392C109.935 94.6127 110.141 94.7497 110.368 94.8423C110.595 94.9348 110.838 94.981 111.083 94.9782L144.533 94.6073C144.774 94.605 145.014 94.6503 145.237 94.7405C145.461 94.8307 145.665 94.9641 145.837 95.1331C146.009 95.302 146.146 95.5033 146.241 95.7253C146.335 95.9473 146.385 96.1858 146.387 96.427L146.445 101.718C146.448 101.959 146.404 102.198 146.314 102.422C146.225 102.646 146.092 102.85 145.923 103.022C145.755 103.194 145.554 103.331 145.332 103.426C145.111 103.52 144.872 103.57 144.631 103.573L134.78 103.683C134.535 103.687 134.294 103.74 134.071 103.839C133.847 103.938 133.646 104.08 133.478 104.257C133.31 104.435 133.179 104.644 133.093 104.873C133.007 105.102 132.968 105.345 132.977 105.589Z" fill="white"/>
</svg>