<?xml version="1.0" standalone="no"?>
<!DOCTYPE svg PUBLIC "-//W3C//DTD SVG 20010904//EN"
 "http://www.w3.org/TR/2001/REC-SVG-20010904/DTD/svg10.dtd">
<svg version="1.0" xmlns="http://www.w3.org/2000/svg"
 width="800.000000pt" height="800.000000pt" viewBox="0 0 800.000000 800.000000"
 preserveAspectRatio="xMidYMid meet">
<metadata>
Created by potrace 1.14, written by Peter Selinger 2001-2017
</metadata>
<g transform="translate(0.000000,800.000000) scale(0.100000,-0.100000)"
fill="#000000" stroke="none">
<path d="M3259 7396 c-2 -2 -47 -7 -99 -10 -53 -4 -105 -8 -115 -10 -11 -2
-42 -7 -70 -10 -27 -4 -66 -9 -85 -12 -49 -8 -252 -51 -325 -70 -33 -9 -67
-17 -75 -19 -25 -5 -233 -76 -267 -91 -17 -8 -38 -14 -46 -14 -9 0 -18 -4 -21
-9 -3 -5 -18 -12 -33 -16 -42 -10 -417 -197 -448 -222 -5 -5 -32 -21 -60 -37
-48 -28 -235 -154 -245 -165 -3 -4 -23 -19 -45 -35 -135 -99 -384 -333 -495
-465 -25 -30 -55 -64 -67 -77 -13 -13 -23 -26 -23 -29 0 -3 -8 -14 -17 -24
-32 -35 -63 -76 -121 -161 -9 -14 -22 -31 -29 -38 -7 -7 -13 -19 -13 -27 0 -7
-7 -16 -16 -19 -8 -3 -13 -10 -10 -15 4 -5 2 -11 -2 -13 -13 -5 -100 -152
-167 -283 -55 -108 -119 -246 -116 -252 0 -2 -9 -24 -20 -50 -51 -118 -128
-372 -154 -508 -5 -29 -9 -49 -20 -97 -2 -12 -7 -38 -10 -58 -3 -20 -7 -45 -9
-55 -4 -21 -12 -86 -23 -190 -15 -138 -8 -578 12 -710 3 -16 7 -47 10 -67 12
-86 16 -114 21 -127 2 -7 7 -34 10 -59 3 -25 7 -50 10 -54 3 -5 7 -18 10 -31
2 -12 13 -56 24 -97 11 -41 23 -86 25 -98 17 -75 107 -313 167 -442 22 -47 40
-86 39 -87 0 -2 15 -30 34 -64 19 -33 35 -63 35 -65 0 -2 18 -33 40 -69 22
-36 40 -69 40 -74 0 -5 4 -11 8 -13 4 -1 28 -36 52 -76 25 -39 48 -72 52 -72
5 0 8 -5 8 -10 0 -11 55 -85 164 -220 55 -69 350 -370 405 -414 13 -10 65 -50
115 -90 50 -39 92 -74 94 -78 2 -5 10 -8 17 -8 7 0 15 -4 17 -8 10 -26 332
-219 508 -304 150 -74 412 -177 490 -193 8 -2 15 -4 15 -5 0 -1 8 -3 18 -6 25
-6 40 -10 57 -16 38 -14 126 -36 175 -44 17 -3 48 -10 70 -16 39 -10 60 -14
120 -22 33 -5 81 -12 135 -21 199 -31 607 -35 830 -8 30 3 70 7 87 7 18 1 33
3 33 6 0 3 15 6 33 7 18 1 89 13 157 27 69 14 136 27 150 30 85 17 355 104
484 156 80 32 216 92 231 102 6 3 54 29 107 57 163 85 452 274 533 348 11 10
36 31 55 46 201 162 451 430 590 632 19 28 38 52 43 53 4 2 7 10 7 17 0 7 4
15 9 17 25 10 228 371 294 526 44 101 139 360 146 395 0 4 1 8 2 10 0 1 2 9 4
17 2 8 13 51 24 95 12 44 23 89 25 100 2 11 7 31 10 45 6 27 13 66 22 120 3
19 7 40 9 47 2 6 7 47 10 91 7 78 7 79 -20 100 -31 25 -67 28 -87 10 -7 -7
-30 -28 -51 -46 -46 -40 -53 -37 -140 55 -34 36 -70 75 -80 85 -33 35 -345
409 -451 543 -31 39 -67 84 -81 100 -13 17 -36 46 -52 65 -15 19 -30 37 -33
40 -3 3 -27 34 -55 70 -27 36 -54 70 -60 76 -5 6 -21 26 -35 44 -47 62 -145
185 -167 210 -13 14 -23 28 -23 32 0 4 -10 18 -22 31 -120 125 -275 414 -313
582 -4 17 -9 39 -12 50 -28 118 -35 177 -36 325 -2 215 6 286 57 470 19 65 61
170 100 247 48 97 53 118 33 144 -32 43 -325 202 -531 289 -88 38 -274 108
-301 114 -12 3 -112 31 -180 51 -27 8 -72 20 -100 25 -27 6 -59 13 -70 15 -64
14 -258 46 -305 50 -30 3 -71 8 -90 11 -38 6 -535 15 -541 10z m-667 -1976
c331 -330 605 -601 609 -601 5 -1 15 -2 22 -3 6 -1 21 2 32 7 11 5 270 259
576 565 305 305 568 561 583 569 15 8 35 11 45 8 22 -7 179 -163 197 -196 9
-17 9 -29 1 -47 -7 -14 -262 -275 -568 -581 -306 -306 -561 -567 -568 -580 -7
-12 -10 -33 -7 -45 6 -24 874 -896 903 -907 10 -4 232 -5 493 -2 975 10 896
11 922 -14 20 -21 22 -33 24 -153 2 -123 1 -133 -20 -157 l-23 -26 -217 -2
c-228 -2 -259 -8 -272 -48 -3 -10 -6 -217 -6 -458 0 -510 6 -480 -94 -489 -33
-3 -97 -3 -142 0 -115 7 -122 16 -119 151 1 54 -1 99 -5 99 -4 0 -5 6 -2 14 7
18 10 116 4 116 -3 0 -3 32 0 70 3 39 2 70 -3 70 -4 0 -5 5 -1 11 8 14 7 185
-1 199 -3 6 -3 10 2 10 8 0 7 95 -1 117 -3 6 -2 13 3 15 4 2 3 22 -2 46 -13
67 -22 69 -322 66 -143 -2 -262 -4 -265 -5 -3 -1 -8 -1 -13 0 -4 1 -27 2 -50
2 -41 2 -47 7 -267 226 -125 123 -233 228 -240 234 -46 28 -39 35 -915 -840
-664 -663 -857 -850 -880 -854 -27 -5 -39 4 -132 97 -101 100 -103 102 -93
135 7 24 219 243 849 872 462 462 843 849 846 860 4 11 4 30 1 42 -5 20 -685
709 -732 742 -12 8 -32 12 -45 10 -27 -5 37 57 -774 -753 -616 -616 -655 -652
-685 -650 -27 2 -51 21 -126 96 -78 78 -94 99 -94 125 0 27 76 107 697 728
384 384 700 706 704 716 3 10 2 29 -3 43 -5 14 -157 174 -337 355 -181 182
-333 339 -339 350 -17 33 9 73 102 163 70 67 92 82 117 82 28 0 95 -64 631
-600z"/>
<path d="M6715 7202 c-2 -2 -27 -6 -56 -8 -103 -9 -202 -34 -344 -88 -32 -12
-200 -101 -219 -116 -136 -109 -164 -135 -243 -224 -47 -53 -138 -195 -164
-257 -12 -30 -26 -58 -30 -64 -8 -12 -48 -138 -55 -175 -3 -14 -10 -45 -15
-70 -6 -25 -13 -97 -16 -161 -7 -159 13 -307 61 -439 9 -25 18 -52 21 -61 6
-28 76 -162 114 -219 20 -30 76 -104 124 -165 107 -135 123 -154 145 -181 9
-12 28 -36 42 -54 30 -40 73 -93 80 -100 3 -3 37 -45 75 -95 39 -49 77 -97 85
-106 8 -8 29 -33 45 -54 17 -21 35 -43 40 -49 6 -6 33 -39 60 -73 28 -35 53
-63 58 -63 4 0 7 -4 7 -10 0 -5 8 -18 18 -28 9 -10 42 -47 73 -83 60 -68 100
-110 140 -146 l25 -23 55 53 c30 29 79 81 109 116 30 35 63 73 73 83 9 10 17
22 17 27 0 5 4 11 9 13 5 2 44 46 87 98 42 52 79 97 83 100 3 3 19 23 36 45
16 22 32 42 35 45 3 3 84 104 180 225 95 121 199 253 232 292 32 40 58 77 58
83 0 5 4 10 8 10 4 0 16 15 27 33 10 17 21 34 25 37 8 6 101 196 104 213 2 7
6 19 9 27 14 35 38 132 51 206 14 76 15 324 2 384 -20 90 -26 119 -36 150 -6
19 -13 42 -15 50 -2 8 -11 33 -21 55 -10 22 -18 42 -19 45 0 3 -15 34 -34 70
-70 137 -207 300 -334 399 -74 56 -216 141 -238 141 -10 0 -20 4 -24 9 -5 9
-93 42 -105 40 -3 0 -18 5 -35 11 -48 19 -153 39 -235 46 -100 7 -171 10 -175
6z m180 -687 c138 -26 270 -127 335 -255 44 -88 64 -217 45 -297 -3 -13 -7
-33 -10 -44 -2 -12 -17 -49 -33 -83 -104 -217 -354 -320 -586 -241 -57 20
-121 57 -153 90 -12 13 -26 25 -30 26 -18 8 -81 107 -101 159 -31 82 -34 95
-34 168 0 171 77 313 220 409 29 19 59 36 65 37 7 2 19 6 27 9 66 28 176 38
255 22z"/>
</g>
</svg>
